<svg viewBox="0 0 800 800" xmlns="http://www.w3.org/2000/svg" role="img" aria-label="Wood grain themed chessboard">
  <defs>
    <linearGradient id="lightWoodGradient" x1="0%" y1="0%" x2="100%" y2="100%">
      <stop offset="0%" stop-color="#E6B880" />
      <stop offset="100%" stop-color="#CC9966" />
    </linearGradient>
    <linearGradient id="darkWoodGradient" x1="0%" y1="0%" x2="100%" y2="100%">
      <stop offset="0%" stop-color="#5C4033" />
      <stop offset="100%" stop-color="#402F28" />
    </linearGradient>
  </defs>

  <rect x="0" y="0" width="800" height="800" fill="#3B2C21" rx="10" ry="10"/>

  <g rx="8" ry="8">
    <!-- Use a single loop pattern by using <rect> elements for all squares -->
    <g>
      <!-- We generate all 64 squares via a template using <rect> and CSS style -->
      <!-- Size and padding -->
      <style>
        .square { width:90px; height:90px; rx:8; ry:8; }
      </style>

      <!-- Light squares -->
      <g fill="url(#lightWoodGradient)">
        <rect class="square" x="5" y="5" />
        <rect class="square" x="205" y="5" />
        <rect class="square" x="405" y="5" />
        <rect class="square" x="605" y="5" />
        <rect class="square" x="105" y="105" />
        <rect class="square" x="305" y="105" />
        <rect class="square" x="505" y="105" />
        <rect class="square" x="705" y="105" />
        <rect class="square" x="5" y="205" />
        <rect class="square" x="205" y="205" />
        <rect class="square" x="405" y="205" />
        <rect class="square" x="605" y="205" />
        <rect class="square" x="105" y="305" />
        <rect class="square" x="305" y="305" />
        <rect class="square" x="505" y="305" />
        <rect class="square" x="705" y="305" />
        <rect class="square" x="5" y="405" />
        <rect class="square" x="205" y="405" />
        <rect class="square" x="405" y="405" />
        <rect class="square" x="605" y="405" />
        <rect class="square" x="105" y="505" />
        <rect class="square" x="305" y="505" />
        <rect class="square" x="505" y="505" />
        <rect class="square" x="705" y="505" />
        <rect class="square" x="5" y="605" />
        <rect class="square" x="205" y="605" />
        <rect class="square" x="405" y="605" />
        <rect class="square" x="605" y="605" />
        <rect class="square" x="105" y="705" />
        <rect class="square" x="305" y="705" />
        <rect class="square" x="505" y="705" />
        <rect class="square" x="705" y="705" />
      </g>

      <!-- Dark squares -->
      <g fill="url(#darkWoodGradient)">
        <rect class="square" x="105" y="5" />
        <rect class="square" x="305" y="5" />
        <rect class="square" x="505" y="5" />
        <rect class="square" x="705" y="5" />
        <rect class="square" x="5" y="105" />
        <rect class="square" x="205" y="105" />
        <rect class="square" x="405" y="105" />
        <rect class="square" x="605" y="105" />
        <rect class="square" x="105" y="205" />
        <rect class="square" x="305" y="205" />
        <rect class="square" x="505" y="205" />
        <rect class="square" x="705" y="205" />
        <rect class="square" x="5" y="305" />
        <rect class="square" x="205" y="305" />
        <rect class="square" x="405" y="305" />
        <rect class="square" x="605" y="305" />
        <rect class="square" x="105" y="405" />
        <rect class="square" x="305" y="405" />
        <rect class="square" x="505" y="405" />
        <rect class="square" x="705" y="405" />
        <rect class="square" x="5" y="505" />
        <rect class="square" x="205" y="505" />
        <rect class="square" x="405" y="505" />
        <rect class="square" x="605" y="505" />
        <rect class="square" x="105" y="605" />
        <rect class="square" x="305" y="605" />
        <rect class="square" x="505" y="605" />
        <rect class="square" x="705" y="605" />
        <rect class="square" x="5" y="705" />
        <rect class="square" x="205" y="705" />
        <rect class="square" x="405" y="705" />
        <rect class="square" x="605" y="705" />
      </g>
    </g>
  </g>
</svg>

